<svg xmlns="http://www.w3.org/2000/svg" version="1" width="312.95" height="142.96"><defs><marker orient="auto" id="b" overflow="visible"><path d="M-10 0l-4 4L0 0l-14-4 4 4z" fill-rule="evenodd" stroke="#000" stroke-width=".8pt"/></marker><marker orient="auto" id="a" overflow="visible"><path d="M10 0l4-4L0 0l14 4-4-4z" fill-rule="evenodd" stroke="#000" stroke-width=".8pt"/></marker></defs><g transform="translate(2 -2)"><path d="M70.802 109.9h171.244" fill="none" stroke="#000" stroke-dasharray="6.00000001,6.00000001" marker-start="url(#a)"/><path d="M238.332 132.162H65.129M242.663 102.03L181.16 41.67" fill="none" stroke="#000" marker-start="url(#a)"/><path d="M66.376 100.794l58.795-58.892" fill="none" stroke="#000" stroke-width=".977" marker-start="url(#a)"/><rect rx="10" width="67.017" height="41.207" ry="10" x="119.974" y="5.001" opacity=".99" fill="#ffd5f6" stroke="#000" stroke-width="2" stroke-linecap="round" stroke-linejoin="round"/><text x="153.108" y="29.899" style="text-align:center;line-height:125%;-inkscape-font-specification:Arial" font-size="12" font-weight="400" text-anchor="middle" font-family="Arial"><tspan x="153.108" y="29.899" style="text-align:center;line-height:125%;-inkscape-font-specification:Arial">Controller</tspan></text><rect rx="10" width="67.017" height="41.207" ry="10" x="240.936" y="100.753" opacity=".99" fill="#ffd5f6" stroke="#000" stroke-width="2" stroke-linecap="round" stroke-linejoin="round"/><text x="274.424" y="125.581" style="text-align:center;line-height:125%;-inkscape-font-specification:Arial" font-size="12" font-weight="400" text-anchor="middle" font-family="Arial"><tspan x="274.424" y="125.581">Model</tspan></text><rect rx="10" width="67.017" height="41.207" ry="10" x="1" y="100.753" opacity=".99" fill="#ffd5f6" stroke="#000" stroke-width="2" stroke-linecap="round" stroke-linejoin="round"/><text x="34.532" y="125.581" style="text-align:center;line-height:125%;-inkscape-font-specification:Arial" font-size="12" font-weight="400" text-anchor="middle" font-family="Arial"><tspan x="34.532" y="125.581">View</tspan></text><path d="M26.83 100.242c-.594-91.413-7.112-75.193 92.776-76.69" fill="none" stroke="#000" stroke-dasharray="6,6" marker-end="url(#b)"/></g></svg>