<svg id="Livello_1" xmlns="http://www.w3.org/2000/svg" width="255.8" height="62" viewBox="0 0 255.8 62"><style>.st0{fill:none;stroke:#3b51a2;stroke-width:4.8584;stroke-miterlimit:10}.st1{fill:#3b50a2}.st2{fill:none;stroke:#3b51a2;stroke-width:4.8588;stroke-miterlimit:10}.st3{fill:#3b51a2}</style><path class="st1" d="M25.7 34.9l-8.8-3.7v-.1l7.5-3.2-1-5.3-12.2 6v5.1L27 41.5l-1.3-6.6zM50 35.4h.1l3.5-20.6h6.1l-6.2 32.3h-5.9L43 27.3h-.1l-4.5 19.8h-5.9l-6.2-32.3h6.1l3.5 20.6h.1l4.7-20.6h4.5L50 35.4zM78.7 33H67.8v9.1h12.8v5H61.5V14.8h19v5H67.8v8.1h10.9V33zM82.7 47.1V14.8h9.5c3.3 0 5.9.7 7.8 2.2 1.9 1.5 2.8 3.7 2.8 6.6 0 1.5-.3 2.9-1 4.1-.7 1.2-1.7 2.1-3.1 2.7 1.7.4 3 1.3 3.8 2.6.8 1.3 1.2 2.9 1.2 4.7 0 3.1-.9 5.4-2.7 7s-4.3 2.4-7.6 2.4H82.7zM89 28.5h3.5c1.3 0 2.3-.4 3-1.1.7-.7 1-1.8 1-3.1 0-1.5-.4-2.6-1.1-3.3-.7-.7-1.8-1.1-3.2-1.1H89v8.6zm0 4.4v9.2h4.5c1.3 0 2.3-.4 3-1.1.7-.7 1-1.8 1-3.3 0-1.5-.3-2.7-.8-3.6-.6-.8-1.5-1.2-2.7-1.2h-5zM110.5 47.1h-6.2v-5.7h6.2v5.7zM118.6 47.1h-6.3V14.8h6.3v32.3zM136.1 38.7c0-1.3-.3-2.3-1-3s-1.8-1.5-3.4-2.2c-3.4-1.2-5.9-2.5-7.6-4-1.7-1.5-2.5-3.6-2.5-6.2s1-4.8 2.9-6.5 4.4-2.5 7.5-2.5c3.1 0 5.6.9 7.5 2.8 1.9 1.9 2.9 4.2 2.8 7v.1h-6.1c0-1.5-.4-2.7-1.1-3.6-.7-.9-1.8-1.4-3.1-1.4s-2.2.4-2.9 1.1c-.7.8-1.1 1.7-1.1 2.9 0 1.1.4 1.9 1.2 2.6.8.7 2.1 1.5 4.1 2.3 3.1 1 5.4 2.4 6.9 3.9 1.5 1.6 2.3 3.7 2.3 6.4 0 2.8-.9 5-2.8 6.6-1.9 1.6-4.3 2.4-7.4 2.4-3.1 0-5.7-.9-8-2.7-2.3-1.8-3.3-4.4-3.3-7.7v-.1h6.1c0 2 .4 3.4 1.3 4.3.8.9 2.1 1.3 3.8 1.3 1.3 0 2.3-.4 3-1.1.6-.5.9-1.5.9-2.7zM149 47.1h-6.2v-5.7h6.2v5.7zM166.9 40.2h-8.5l-1.7 6.9h-6.4l9.1-32.3h6.6l9.1 32.3h-6.4l-1.8-6.9zm-7.2-5h6l-2.9-11.4h-.1l-3 11.4zM182.7 34.3v12.9h-6.3V14.8H187c3.2 0 5.7.8 7.5 2.5 1.8 1.7 2.7 4 2.7 7 0 1.7-.4 3.1-1.1 4.4-.8 1.2-1.9 2.2-3.3 2.9 1.7.6 2.9 1.5 3.6 2.8.7 1.3 1.1 2.9 1.1 4.9v2.3c0 .9.1 1.8.3 2.9.2 1 .6 1.8 1.1 2.2v.5h-6.5c-.5-.5-.8-1.2-1-2.3-.1-1.1-.2-2.2-.2-3.3v-2.2c0-1.6-.3-2.9-1-3.8-.7-.9-1.6-1.3-2.8-1.3h-4.7zm0-5.1h4.2c1.3 0 2.3-.4 2.9-1.2.7-.8 1-1.9 1-3.4s-.3-2.7-1-3.5c-.7-.9-1.6-1.3-2.9-1.3h-4.2v9.4zM218.3 19.9H211v27.3h-6.3V19.9h-7.2v-5h20.8v5zM223.7 14.8h5l-6.3 32.3h-4.8l6.1-32.3zM231.9 22.3l-1 5.3L239 31v.1l-9.6 4.1-1.3 6.5 16.5-8.1v-5.1l-12.7-6.2z"/><path class="st1" d="M11.1 33.6l15.8 7.9-1.2-6.6-8.9-3.7v-.1l7.5-3.3-1-5.2-12.2 5.9M50 35.4h.1l3.5-20.6h6.1l-6.2 32.3h-5.9L43 27.3h-.1l-4.5 19.8h-5.9l-6.2-32.3h6.1l3.5 20.6h.1l4.7-20.6h4.5L50 35.4zM78.7 33H67.8v9.1h12.8v5H61.5V14.8h19v5H67.8v8.1h10.9V33zM82.7 47.1V14.8h9.5c3.3 0 5.9.7 7.8 2.2 1.9 1.5 2.8 3.7 2.8 6.6 0 1.5-.3 2.9-1 4.1-.7 1.2-1.7 2.1-3.1 2.7 1.7.4 3 1.3 3.8 2.6.8 1.3 1.2 2.9 1.2 4.7 0 3.1-.9 5.4-2.7 7s-4.3 2.4-7.6 2.4H82.7zM89 28.5h3.5c1.3 0 2.3-.4 3-1.1.7-.7 1-1.8 1-3.1 0-1.5-.4-2.6-1.1-3.3-.7-.7-1.8-1.1-3.2-1.1H89v8.6zm0 4.4v9.2h4.5c1.3 0 2.3-.4 3-1.1.7-.7 1-1.8 1-3.3 0-1.5-.3-2.7-.8-3.6-.6-.8-1.5-1.2-2.7-1.2h-5zM110.5 47.1h-6.2v-5.7h6.2v5.7zM118.6 47.1h-6.3V14.8h6.3v32.3zM136.1 38.7c0-1.3-.3-2.3-1-3s-1.8-1.5-3.4-2.2c-3.4-1.2-5.9-2.5-7.6-4-1.7-1.5-2.5-3.6-2.5-6.2s1-4.8 2.9-6.5 4.4-2.5 7.5-2.5c3.1 0 5.6.9 7.5 2.8 1.9 1.9 2.9 4.2 2.8 7v.1h-6.1c0-1.5-.4-2.7-1.1-3.6-.7-.9-1.8-1.4-3.1-1.4s-2.2.4-2.9 1.1c-.7.8-1.1 1.7-1.1 2.9 0 1.1.4 1.9 1.2 2.6.8.7 2.1 1.5 4.1 2.3 3.1 1 5.4 2.4 6.9 3.9 1.5 1.6 2.3 3.7 2.3 6.4 0 2.8-.9 5-2.8 6.6-1.9 1.6-4.3 2.4-7.4 2.4-3.1 0-5.7-.9-8-2.7-2.3-1.8-3.3-4.4-3.3-7.7v-.1h6.1c0 2 .4 3.4 1.3 4.3.8.9 2.1 1.3 3.8 1.3 1.3 0 2.3-.4 3-1.1.6-.5.9-1.5.9-2.7zM149 47.1h-6.2v-5.7h6.2v5.7zM166.9 40.2h-8.5l-1.7 6.9h-6.4l9.1-32.3h6.6l9.1 32.3h-6.4l-1.8-6.9zm-7.2-5h6l-2.9-11.4h-.1l-3 11.4zM182.7 34.3v12.9h-6.3V14.8H187c3.2 0 5.7.8 7.5 2.5 1.8 1.7 2.7 4 2.7 7 0 1.7-.4 3.1-1.1 4.4-.8 1.2-1.9 2.2-3.3 2.9 1.7.6 2.9 1.5 3.6 2.8.7 1.3 1.1 2.9 1.1 4.9v2.3c0 .9.1 1.8.3 2.9.2 1 .6 1.8 1.1 2.2v.5h-6.5c-.5-.5-.8-1.2-1-2.3-.1-1.1-.2-2.2-.2-3.3v-2.2c0-1.6-.3-2.9-1-3.8-.7-.9-1.6-1.3-2.8-1.3h-4.7zm0-5.1h4.2c1.3 0 2.3-.4 2.9-1.2.7-.8 1-1.9 1-3.4s-.3-2.7-1-3.5c-.7-.9-1.6-1.3-2.9-1.3h-4.2v9.4zM218.3 19.9H211v27.3h-6.3V19.9h-7.2v-5h20.8v5zM223.7 14.8h5l-6.3 32.3h-4.8l6.1-32.3zM231.9 22.3l-1 5.3L239 31v.1l-9.6 4.1-1.3 6.5 16.5-8.1v-5.1l-12.7-6.2z"/><path class="st3" d="M226.6 0l-1.9 10.1h5l1-5.2h20.2v52.2H4.9V4.9h213.4V0H0v62h255.8V0h-29.2z"/></svg>